<?xml version="1.0" encoding="UTF-8"?>
<svg id="Calque_1" data-name="Calque 1" xmlns="http://www.w3.org/2000/svg" viewBox="0 0 391 429.19">
  <path d="M33.34,260.57c-4.34-11.09-4.8-23.48-1.44-34.91,6.86-23.33,29.3-39.63,53.74-38.5l-.73-6.58c-1.73-41.94,18.94-80.52,55.02-101.64,3.11-1.82,6.39-3.32,9.5-5.14-10.82-22.44-3.87-49.66,16.25-64.1,18.02-12.94,42.1-12.94,60.12,0,20.13,14.45,27.07,41.65,16.25,64.1,6.11,3.22,12.17,6.5,17.81,10.5,32.53,23.08,50.91,62.87,45.98,102.86,24.43-1.13,46.88,15.17,53.74,38.5,3.36,11.42,2.89,23.82-1.44,34.91h32.86l-195.59,168.62L0,260.57h33.34ZM235.01,51.4c0-21.69-17.58-39.27-39.27-39.27s-39.27,17.58-39.27,39.27,17.58,39.27,39.27,39.27,39.27-17.58,39.27-39.27ZM166.96,94.33c.08-.37-.05-.38-.25-.58-1.14-1.12-3.41-2.39-4.79-3.61-1.97-1.74-3.87-3.92-5.66-5.86-33.41,14.25-56.55,47.3-59.1,83.58-3.55,50.48,32.33,96.26,82.23,104.4,66.13,10.78,123.27-45,114.2-111.32-4.59-33.58-27.31-63.34-58.35-76.66-1.79,1.95-3.69,4.12-5.66,5.86-.75.67-4.9,3.55-5.04,3.84-.2.4.19.32.33.38,2.48,1.11,5.16,1.95,7.67,3.13,15.22,7.2,29.04,19.96,37.38,34.59.46.8,2.71,4.72,2.57,5.27-19.71,15.87-37.59,34.91-47.99,58.29-7.34,16.5-12.89,36.13-15.28,54.05-.43,3.22-.49,6.51-1.1,9.69-8.19,1.4-16.72,1.28-24.93.02-1.09-11.8-3.06-23.45-6.2-34.86-3.84-13.97-9.18-28.79-16.53-41.28-10.52-17.86-25.57-33-41.66-45.86,9.69-19.82,27.22-35.93,48.19-43.07ZM46.54,260.57h11.99c-18.31-23.44,2.89-57.12,31.9-50.62l-2.91-10.52c-8.82-.94-18.08,1.27-25.62,5.87-15.29,9.33-23.04,27.33-19.09,44.96.81,3.59,2.24,6.97,3.72,10.31ZM344.95,260.57c7.2-14.22,6.17-31.02-3.16-43.97-8.57-11.89-23.11-18.68-37.83-17.17l-2.91,10.52c29.22-6.68,50.81,26.85,32.38,50.62h11.51ZM103.07,240.91c0-10.83-8.78-19.61-19.61-19.61s-19.61,8.78-19.61,19.61,8.78,19.61,19.61,19.61,19.61-8.78,19.61-19.61ZM328.1,240.9c0-10.83-8.78-19.62-19.62-19.62s-19.62,8.78-19.62,19.62,8.78,19.62,19.62,19.62,19.62-8.78,19.62-19.62ZM113.95,249.78c-.77,2.73-1.97,5.32-3.41,7.75-.47.79-2.32,2.83-2,3.52,17.02,19.01,40.44,31.85,65.78,35.71,15.56,2.37,30.93,2.29,46.42-.52,24.34-4.41,46.65-17.16,63.03-35.55-2.8-3.26-4.75-7.25-5.87-11.39-13.26,14.58-30.45,25.67-49.35,31.49-23.42,7.2-49.31,6.4-72.21-2.28-16.17-6.13-30.64-16.11-42.4-28.73ZM355.74,268.73h-18.59l-141.56,118.72-2.6-1.9-138.66-116.58h-18.83l160.09,137.91,160.15-138.15Z"/>
  <path d="M223.81,255.53c1.74-16.14,5.99-31.97,11.81-47.08,2.53-6.56,5.55-12.86,9.2-18.87,8.67-14.3,20.63-26.46,33.32-37.2.48.03,1.82,6.96,1.97,7.86,1.75,10.48,1.5,22.34-.72,32.72-6.16,28.73-27.68,53.3-55.58,62.56Z"/>
  <path d="M167.43,255.53c-27.79-9.55-49.17-33.81-55.34-62.56-2.23-10.38-2.47-22.24-.72-32.72.14-.84,1.5-7.87,1.97-7.86,12.07,10.47,23.56,21.93,32.12,35.52,4.45,7.07,7.94,14.41,10.87,22.23,5.45,14.56,9.55,29.88,11.09,45.4Z"/>
  <path d="M223.38,51.52c0,15.34-12.43,27.77-27.77,27.77s-27.77-12.43-27.77-27.77,12.43-27.77,27.77-27.77,27.77,12.43,27.77,27.77ZM211.26,51.52c0-8.64-7-15.64-15.64-15.64s-15.64,7-15.64,15.64,7,15.64,15.64,15.64,15.64-7,15.64-15.64Z"/>
</svg>