<svg width="35" height="36" viewBox="0 0 35 36" fill="none" xmlns="http://www.w3.org/2000/svg">
<g clip-path="url(#clip0_59_2)">
<path d="M26.9489 35.9074L34.9398 26.7173C34.9786 26.6727 35 26.6169 35 26.5593V0.251178C35 0.0168176 34.6864 -0.0890224 34.5261 0.0909776L26.5349 9.05642C26.4946 9.10142 26.4729 9.1583 26.4729 9.21662V35.749C26.4729 35.9848 26.7897 36.0899 26.9489 35.907V35.9074Z" fill="white"/>
<path d="M8.05105 35.9071L0.059845 26.7174C0.0209951 26.6728 -0.000355721 26.617 -0.000355721 26.5594V0.250937C-0.000355721 0.0165768 0.313246 -0.0896232 0.473546 0.0907369L8.46474 9.05618C8.50499 9.10118 8.5267 9.15806 8.5267 9.21638V35.7487C8.5267 35.9845 8.20995 36.0897 8.0507 35.9068L8.05105 35.9071Z" fill="white"/>
<path d="M24.7509 13.037L10.248 13.0385C9.93054 13.0385 9.75659 13.3837 9.95889 13.6127L16.3793 20.8811C16.4514 20.9624 16.5585 21.0092 16.6715 21.0085L18.3323 20.9959C18.4429 20.9952 18.5479 20.9484 18.6182 20.8688L25.0397 13.6116C25.242 13.383 25.068 13.0374 24.7506 13.0374L24.7509 13.037Z" fill="white"/>
<path d="M26.0071 14.0688V25.4365C26.0068 25.5154 25.9784 25.5917 25.9263 25.6536L17.7947 35.3009C17.6446 35.4791 17.3558 35.4791 17.2053 35.3009L9.06782 25.6532C9.01567 25.5913 8.98732 25.515 8.98732 25.4362V14.0684C8.98732 13.7351 9.43777 13.5896 9.65757 13.8521L17.5 23.1944L25.3365 13.8528C25.5567 13.5907 26.0071 13.7362 26.0071 14.0692V14.0688Z" fill="white"/>
</g>
<defs>
<clipPath id="clip0_59_2">
<rect width="35" height="36" fill="white" transform="matrix(-1 0 0 1 35 0)"/>
</clipPath>
</defs>
</svg>
